%TF.GenerationSoftware,KiCad,Pcbnew,10.0.1*%
%TF.CreationDate,2026-05-12T18:05:00+08:00*%
%TF.ProjectId,bionic_hand,62696f6e-6963-45f6-9861-6e642e6b6963,rev?*%
%TF.SameCoordinates,Original*%
%TF.FileFunction,Copper,L1,Top*%
%TF.FilePolarity,Positive*%
%FSLAX46Y46*%
G04 Gerber Fmt 4.6, Leading zero omitted, Abs format (unit mm)*
G04 Created by KiCad (PCBNEW 10.0.1) date 2026-05-12 18:05:00*
%MOMM*%
%LPD*%
G01*
G04 APERTURE LIST*
G04 Aperture macros list*
%AMRoundRect*
0 Rectangle with rounded corners*
0 $1 Rounding radius*
0 $2 $3 $4 $5 $6 $7 $8 $9 X,Y pos of 4 corners*
0 Add a 4 corners polygon primitive as box body*
4,1,4,$2,$3,$4,$5,$6,$7,$8,$9,$2,$3,0*
0 Add four circle primitives for the rounded corners*
1,1,$1+$1,$2,$3*
1,1,$1+$1,$4,$5*
1,1,$1+$1,$6,$7*
1,1,$1+$1,$8,$9*
0 Add four rect primitives between the rounded corners*
20,1,$1+$1,$2,$3,$4,$5,0*
20,1,$1+$1,$4,$5,$6,$7,0*
20,1,$1+$1,$6,$7,$8,$9,0*
20,1,$1+$1,$8,$9,$2,$3,0*%
G04 Aperture macros list end*
%TA.AperFunction,Conductor*%
%ADD10C,0.200000*%
%TD*%
%ADD11C,0.300000*%
%TA.AperFunction,NonConductor*%
%ADD12C,0.300000*%
%TD*%
%ADD13C,0.125000*%
%TA.AperFunction,NonConductor*%
%ADD14C,0.125000*%
%TD*%
%TA.AperFunction,ComponentPad*%
%ADD15C,2.600000*%
%TD*%
%TA.AperFunction,ComponentPad*%
%ADD16RoundRect,0.250000X-1.050000X-1.050000X1.050000X-1.050000X1.050000X1.050000X-1.050000X1.050000X0*%
%TD*%
%TA.AperFunction,ComponentPad*%
%ADD17O,2.000000X2.800000*%
%TD*%
%TA.AperFunction,ComponentPad*%
%ADD18RoundRect,0.288462X-1.211538X-1.211538X1.211538X-1.211538X1.211538X1.211538X-1.211538X1.211538X0*%
%TD*%
%TA.AperFunction,ComponentPad*%
%ADD19O,2.800000X2.000000*%
%TD*%
%TA.AperFunction,ComponentPad*%
%ADD20C,1.400000*%
%TD*%
%TA.AperFunction,ComponentPad*%
%ADD21O,1.905000X2.000000*%
%TD*%
%TA.AperFunction,ComponentPad*%
%ADD22R,1.905000X2.000000*%
%TD*%
%TA.AperFunction,ComponentPad*%
%ADD23C,1.600000*%
%TD*%
%TA.AperFunction,Conductor*%
%ADD24C,1.500000*%
%TD*%
%TA.AperFunction,Conductor*%
%ADD25C,0.600000*%
%TD*%
%TA.AperFunction,Conductor*%
%ADD26C,0.500000*%
%TD*%
%TA.AperFunction,Conductor*%
%ADD27C,1.000000*%
%TD*%
%TA.AperFunction,Conductor*%
%ADD28C,0.300000*%
%TD*%
%TA.AperFunction,Conductor*%
%ADD29C,0.800000*%
%TD*%
G04 APERTURE END LIST*
%TO.N,/3V3*%
D10*
X115000000Y-145000000D02*
X115000000Y-139000000D01*
X161000000Y-50000000D02*
X161000000Y-34499972D01*
D11*
D12*
X150054510Y-53229400D02*
X151197368Y-53229400D01*
D10*
X161000000Y-140000000D02*
X161000000Y-145500000D01*
X122000000Y-152000000D02*
X154500000Y-152000000D01*
X115000000Y-35000000D02*
G75*
G02*
X117500000Y-32500000I2500000J0D01*
G01*
D13*
D14*
X120595595Y-103803478D02*
X120595595Y-103308240D01*
X120595595Y-103308240D02*
X120900357Y-103574906D01*
X120900357Y-103574906D02*
X120900357Y-103460621D01*
X120900357Y-103460621D02*
X120938452Y-103384430D01*
X120938452Y-103384430D02*
X120976547Y-103346335D01*
X120976547Y-103346335D02*
X121052738Y-103308240D01*
X121052738Y-103308240D02*
X121243214Y-103308240D01*
X121243214Y-103308240D02*
X121319404Y-103346335D01*
X121319404Y-103346335D02*
X121357500Y-103384430D01*
X121357500Y-103384430D02*
X121395595Y-103460621D01*
X121395595Y-103460621D02*
X121395595Y-103689192D01*
X121395595Y-103689192D02*
X121357500Y-103765383D01*
X121357500Y-103765383D02*
X121319404Y-103803478D01*
X120595595Y-103079668D02*
X121395595Y-102813001D01*
X121395595Y-102813001D02*
X120595595Y-102546335D01*
X120595595Y-102355859D02*
X120595595Y-101860621D01*
X120595595Y-101860621D02*
X120900357Y-102127287D01*
X120900357Y-102127287D02*
X120900357Y-102013002D01*
X120900357Y-102013002D02*
X120938452Y-101936811D01*
X120938452Y-101936811D02*
X120976547Y-101898716D01*
X120976547Y-101898716D02*
X121052738Y-101860621D01*
X121052738Y-101860621D02*
X121243214Y-101860621D01*
X121243214Y-101860621D02*
X121319404Y-101898716D01*
X121319404Y-101898716D02*
X121357500Y-101936811D01*
X121357500Y-101936811D02*
X121395595Y-102013002D01*
X121395595Y-102013002D02*
X121395595Y-102241573D01*
X121395595Y-102241573D02*
X121357500Y-102317764D01*
X121357500Y-102317764D02*
X121319404Y-102355859D01*
D11*
D12*
X150554510Y-65229400D02*
X151697368Y-65229400D01*
D11*
D12*
X144554510Y-66229400D02*
X145697368Y-66229400D01*
X145125939Y-66800828D02*
X145125939Y-65657971D01*
D11*
D12*
X117902725Y-35300828D02*
X117492010Y-34586542D01*
X117045582Y-35300828D02*
X117233082Y-33800828D01*
X117233082Y-33800828D02*
X117804510Y-33800828D01*
X117804510Y-33800828D02*
X117938439Y-33872257D01*
X117938439Y-33872257D02*
X118000939Y-33943685D01*
X118000939Y-33943685D02*
X118054510Y-34086542D01*
X118054510Y-34086542D02*
X118027725Y-34300828D01*
X118027725Y-34300828D02*
X117938439Y-34443685D01*
X117938439Y-34443685D02*
X117858082Y-34515114D01*
X117858082Y-34515114D02*
X117706296Y-34586542D01*
X117706296Y-34586542D02*
X117134868Y-34586542D01*
X118759868Y-35300828D02*
X118625939Y-35229400D01*
X118625939Y-35229400D02*
X118563439Y-35157971D01*
X118563439Y-35157971D02*
X118509868Y-35015114D01*
X118509868Y-35015114D02*
X118563439Y-34586542D01*
X118563439Y-34586542D02*
X118652725Y-34443685D01*
X118652725Y-34443685D02*
X118733082Y-34372257D01*
X118733082Y-34372257D02*
X118884868Y-34300828D01*
X118884868Y-34300828D02*
X119099153Y-34300828D01*
X119099153Y-34300828D02*
X119233082Y-34372257D01*
X119233082Y-34372257D02*
X119295582Y-34443685D01*
X119295582Y-34443685D02*
X119349153Y-34586542D01*
X119349153Y-34586542D02*
X119295582Y-35015114D01*
X119295582Y-35015114D02*
X119206296Y-35157971D01*
X119206296Y-35157971D02*
X119125939Y-35229400D01*
X119125939Y-35229400D02*
X118974153Y-35300828D01*
X118974153Y-35300828D02*
X118759868Y-35300828D01*
X119902725Y-35300828D02*
X120090225Y-33800828D01*
X120018796Y-34372257D02*
X120170582Y-34300828D01*
X120170582Y-34300828D02*
X120456296Y-34300828D01*
X120456296Y-34300828D02*
X120590225Y-34372257D01*
X120590225Y-34372257D02*
X120652725Y-34443685D01*
X120652725Y-34443685D02*
X120706296Y-34586542D01*
X120706296Y-34586542D02*
X120652725Y-35015114D01*
X120652725Y-35015114D02*
X120563439Y-35157971D01*
X120563439Y-35157971D02*
X120483082Y-35229400D01*
X120483082Y-35229400D02*
X120331296Y-35300828D01*
X120331296Y-35300828D02*
X120045582Y-35300828D01*
X120045582Y-35300828D02*
X119911653Y-35229400D01*
X121474154Y-35300828D02*
X121340225Y-35229400D01*
X121340225Y-35229400D02*
X121277725Y-35157971D01*
X121277725Y-35157971D02*
X121224154Y-35015114D01*
X121224154Y-35015114D02*
X121277725Y-34586542D01*
X121277725Y-34586542D02*
X121367011Y-34443685D01*
X121367011Y-34443685D02*
X121447368Y-34372257D01*
X121447368Y-34372257D02*
X121599154Y-34300828D01*
X121599154Y-34300828D02*
X121813439Y-34300828D01*
X121813439Y-34300828D02*
X121947368Y-34372257D01*
X121947368Y-34372257D02*
X122009868Y-34443685D01*
X122009868Y-34443685D02*
X122063439Y-34586542D01*
X122063439Y-34586542D02*
X122009868Y-35015114D01*
X122009868Y-35015114D02*
X121920582Y-35157971D01*
X121920582Y-35157971D02*
X121840225Y-35229400D01*
X121840225Y-35229400D02*
X121688439Y-35300828D01*
X121688439Y-35300828D02*
X121474154Y-35300828D01*
X122527725Y-34300828D02*
X123099154Y-34300828D01*
X122804511Y-33800828D02*
X122643797Y-35086542D01*
X122643797Y-35086542D02*
X122697368Y-35229400D01*
X122697368Y-35229400D02*
X122831297Y-35300828D01*
X122831297Y-35300828D02*
X122974154Y-35300828D01*
X123474154Y-35300828D02*
X123599154Y-34300828D01*
X123661654Y-33800828D02*
X123581297Y-33872257D01*
X123581297Y-33872257D02*
X123643797Y-33943685D01*
X123643797Y-33943685D02*
X123724154Y-33872257D01*
X123724154Y-33872257D02*
X123661654Y-33800828D01*
X123661654Y-33800828D02*
X123643797Y-33943685D01*
X124840226Y-35229400D02*
X124688440Y-35300828D01*
X124688440Y-35300828D02*
X124402726Y-35300828D01*
X124402726Y-35300828D02*
X124268797Y-35229400D01*
X124268797Y-35229400D02*
X124206297Y-35157971D01*
X124206297Y-35157971D02*
X124152726Y-35015114D01*
X124152726Y-35015114D02*
X124206297Y-34586542D01*
X124206297Y-34586542D02*
X124295583Y-34443685D01*
X124295583Y-34443685D02*
X124375940Y-34372257D01*
X124375940Y-34372257D02*
X124527726Y-34300828D01*
X124527726Y-34300828D02*
X124813440Y-34300828D01*
X124813440Y-34300828D02*
X124947368Y-34372257D01*
X126617011Y-35300828D02*
X126804511Y-33800828D01*
X126715225Y-34515114D02*
X127572368Y-34515114D01*
X127474154Y-35300828D02*
X127661654Y-33800828D01*
X128831297Y-35300828D02*
X128929511Y-34515114D01*
X128929511Y-34515114D02*
X128875940Y-34372257D01*
X128875940Y-34372257D02*
X128742011Y-34300828D01*
X128742011Y-34300828D02*
X128456297Y-34300828D01*
X128456297Y-34300828D02*
X128304511Y-34372257D01*
X128840226Y-35229400D02*
X128688440Y-35300828D01*
X128688440Y-35300828D02*
X128331297Y-35300828D01*
X128331297Y-35300828D02*
X128197368Y-35229400D01*
X128197368Y-35229400D02*
X128143797Y-35086542D01*
X128143797Y-35086542D02*
X128161654Y-34943685D01*
X128161654Y-34943685D02*
X128250940Y-34800828D01*
X128250940Y-34800828D02*
X128402726Y-34729400D01*
X128402726Y-34729400D02*
X128759868Y-34729400D01*
X128759868Y-34729400D02*
X128911654Y-34657971D01*
X129670583Y-34300828D02*
X129545583Y-35300828D01*
X129652726Y-34443685D02*
X129733083Y-34372257D01*
X129733083Y-34372257D02*
X129884869Y-34300828D01*
X129884869Y-34300828D02*
X130099154Y-34300828D01*
X130099154Y-34300828D02*
X130233083Y-34372257D01*
X130233083Y-34372257D02*
X130286654Y-34515114D01*
X130286654Y-34515114D02*
X130188440Y-35300828D01*
X131545583Y-35300828D02*
X131733083Y-33800828D01*
X131554512Y-35229400D02*
X131402726Y-35300828D01*
X131402726Y-35300828D02*
X131117012Y-35300828D01*
X131117012Y-35300828D02*
X130983083Y-35229400D01*
X130983083Y-35229400D02*
X130920583Y-35157971D01*
X130920583Y-35157971D02*
X130867012Y-35015114D01*
X130867012Y-35015114D02*
X130920583Y-34586542D01*
X130920583Y-34586542D02*
X131009869Y-34443685D01*
X131009869Y-34443685D02*
X131090226Y-34372257D01*
X131090226Y-34372257D02*
X131242012Y-34300828D01*
X131242012Y-34300828D02*
X131527726Y-34300828D01*
X131527726Y-34300828D02*
X131661654Y-34372257D01*
X133402726Y-35300828D02*
X133590226Y-33800828D01*
X133590226Y-33800828D02*
X134161654Y-33800828D01*
X134161654Y-33800828D02*
X134295583Y-33872257D01*
X134295583Y-33872257D02*
X134358083Y-33943685D01*
X134358083Y-33943685D02*
X134411654Y-34086542D01*
X134411654Y-34086542D02*
X134384869Y-34300828D01*
X134384869Y-34300828D02*
X134295583Y-34443685D01*
X134295583Y-34443685D02*
X134215226Y-34515114D01*
X134215226Y-34515114D02*
X134063440Y-34586542D01*
X134063440Y-34586542D02*
X133492012Y-34586542D01*
X135777726Y-35157971D02*
X135697369Y-35229400D01*
X135697369Y-35229400D02*
X135474154Y-35300828D01*
X135474154Y-35300828D02*
X135331297Y-35300828D01*
X135331297Y-35300828D02*
X135125940Y-35229400D01*
X135125940Y-35229400D02*
X135000940Y-35086542D01*
X135000940Y-35086542D02*
X134947369Y-34943685D01*
X134947369Y-34943685D02*
X134911654Y-34657971D01*
X134911654Y-34657971D02*
X134938440Y-34443685D01*
X134938440Y-34443685D02*
X135045583Y-34157971D01*
X135045583Y-34157971D02*
X135134869Y-34015114D01*
X135134869Y-34015114D02*
X135295583Y-33872257D01*
X135295583Y-33872257D02*
X135518797Y-33800828D01*
X135518797Y-33800828D02*
X135661654Y-33800828D01*
X135661654Y-33800828D02*
X135867012Y-33872257D01*
X135867012Y-33872257D02*
X135929512Y-33943685D01*
X137000940Y-34515114D02*
X137206297Y-34586542D01*
X137206297Y-34586542D02*
X137268797Y-34657971D01*
X137268797Y-34657971D02*
X137322369Y-34800828D01*
X137322369Y-34800828D02*
X137295583Y-35015114D01*
X137295583Y-35015114D02*
X137206297Y-35157971D01*
X137206297Y-35157971D02*
X137125940Y-35229400D01*
X137125940Y-35229400D02*
X136974154Y-35300828D01*
X136974154Y-35300828D02*
X136402726Y-35300828D01*
X136402726Y-35300828D02*
X136590226Y-33800828D01*
X136590226Y-33800828D02*
X137090226Y-33800828D01*
X137090226Y-33800828D02*
X137224154Y-33872257D01*
X137224154Y-33872257D02*
X137286654Y-33943685D01*
X137286654Y-33943685D02*
X137340226Y-34086542D01*
X137340226Y-34086542D02*
X137322369Y-34229400D01*
X137322369Y-34229400D02*
X137233083Y-34372257D01*
X137233083Y-34372257D02*
X137152726Y-34443685D01*
X137152726Y-34443685D02*
X137000940Y-34515114D01*
X137000940Y-34515114D02*
X136500940Y-34515114D01*
D10*
X115000000Y-50500000D02*
X115000000Y-139000000D01*
X160500000Y-146000000D02*
X154500000Y-152000000D01*
X161000000Y-139500000D02*
X161000000Y-50000000D01*
X158500000Y-32500000D02*
X117500000Y-32500000D01*
D11*
D12*
X120515114Y-72445489D02*
X120515114Y-71945489D01*
X121300828Y-71731203D02*
X121300828Y-72445489D01*
X121300828Y-72445489D02*
X119800828Y-72445489D01*
X119800828Y-72445489D02*
X119800828Y-71731203D01*
X121300828Y-71088346D02*
X119800828Y-71088346D01*
X119800828Y-71088346D02*
X120872257Y-70588346D01*
X120872257Y-70588346D02*
X119800828Y-70088346D01*
X119800828Y-70088346D02*
X121300828Y-70088346D01*
X119872257Y-68588345D02*
X119800828Y-68731203D01*
X119800828Y-68731203D02*
X119800828Y-68945488D01*
X119800828Y-68945488D02*
X119872257Y-69159774D01*
X119872257Y-69159774D02*
X120015114Y-69302631D01*
X120015114Y-69302631D02*
X120157971Y-69374060D01*
X120157971Y-69374060D02*
X120443685Y-69445488D01*
X120443685Y-69445488D02*
X120657971Y-69445488D01*
X120657971Y-69445488D02*
X120943685Y-69374060D01*
X120943685Y-69374060D02*
X121086542Y-69302631D01*
X121086542Y-69302631D02*
X121229400Y-69159774D01*
X121229400Y-69159774D02*
X121300828Y-68945488D01*
X121300828Y-68945488D02*
X121300828Y-68802631D01*
X121300828Y-68802631D02*
X121229400Y-68588345D01*
X121229400Y-68588345D02*
X121157971Y-68516917D01*
X121157971Y-68516917D02*
X120657971Y-68516917D01*
X120657971Y-68516917D02*
X120657971Y-68802631D01*
X121229400Y-66802631D02*
X121300828Y-66588346D01*
X121300828Y-66588346D02*
X121300828Y-66231203D01*
X121300828Y-66231203D02*
X121229400Y-66088346D01*
X121229400Y-66088346D02*
X121157971Y-66016917D01*
X121157971Y-66016917D02*
X121015114Y-65945488D01*
X121015114Y-65945488D02*
X120872257Y-65945488D01*
X120872257Y-65945488D02*
X120729400Y-66016917D01*
X120729400Y-66016917D02*
X120657971Y-66088346D01*
X120657971Y-66088346D02*
X120586542Y-66231203D01*
X120586542Y-66231203D02*
X120515114Y-66516917D01*
X120515114Y-66516917D02*
X120443685Y-66659774D01*
X120443685Y-66659774D02*
X120372257Y-66731203D01*
X120372257Y-66731203D02*
X120229400Y-66802631D01*
X120229400Y-66802631D02*
X120086542Y-66802631D01*
X120086542Y-66802631D02*
X119943685Y-66731203D01*
X119943685Y-66731203D02*
X119872257Y-66659774D01*
X119872257Y-66659774D02*
X119800828Y-66516917D01*
X119800828Y-66516917D02*
X119800828Y-66159774D01*
X119800828Y-66159774D02*
X119872257Y-65945488D01*
X121229400Y-64731203D02*
X121300828Y-64874060D01*
X121300828Y-64874060D02*
X121300828Y-65159775D01*
X121300828Y-65159775D02*
X121229400Y-65302632D01*
X121229400Y-65302632D02*
X121086542Y-65374060D01*
X121086542Y-65374060D02*
X120515114Y-65374060D01*
X120515114Y-65374060D02*
X120372257Y-65302632D01*
X120372257Y-65302632D02*
X120300828Y-65159775D01*
X120300828Y-65159775D02*
X120300828Y-64874060D01*
X120300828Y-64874060D02*
X120372257Y-64731203D01*
X120372257Y-64731203D02*
X120515114Y-64659775D01*
X120515114Y-64659775D02*
X120657971Y-64659775D01*
X120657971Y-64659775D02*
X120800828Y-65374060D01*
X120300828Y-64016918D02*
X121300828Y-64016918D01*
X120443685Y-64016918D02*
X120372257Y-63945489D01*
X120372257Y-63945489D02*
X120300828Y-63802632D01*
X120300828Y-63802632D02*
X120300828Y-63588346D01*
X120300828Y-63588346D02*
X120372257Y-63445489D01*
X120372257Y-63445489D02*
X120515114Y-63374061D01*
X120515114Y-63374061D02*
X121300828Y-63374061D01*
X121229400Y-62731203D02*
X121300828Y-62588346D01*
X121300828Y-62588346D02*
X121300828Y-62302632D01*
X121300828Y-62302632D02*
X121229400Y-62159775D01*
X121229400Y-62159775D02*
X121086542Y-62088346D01*
X121086542Y-62088346D02*
X121015114Y-62088346D01*
X121015114Y-62088346D02*
X120872257Y-62159775D01*
X120872257Y-62159775D02*
X120800828Y-62302632D01*
X120800828Y-62302632D02*
X120800828Y-62516918D01*
X120800828Y-62516918D02*
X120729400Y-62659775D01*
X120729400Y-62659775D02*
X120586542Y-62731203D01*
X120586542Y-62731203D02*
X120515114Y-62731203D01*
X120515114Y-62731203D02*
X120372257Y-62659775D01*
X120372257Y-62659775D02*
X120300828Y-62516918D01*
X120300828Y-62516918D02*
X120300828Y-62302632D01*
X120300828Y-62302632D02*
X120372257Y-62159775D01*
X121300828Y-61231203D02*
X121229400Y-61374060D01*
X121229400Y-61374060D02*
X121157971Y-61445489D01*
X121157971Y-61445489D02*
X121015114Y-61516917D01*
X121015114Y-61516917D02*
X120586542Y-61516917D01*
X120586542Y-61516917D02*
X120443685Y-61445489D01*
X120443685Y-61445489D02*
X120372257Y-61374060D01*
X120372257Y-61374060D02*
X120300828Y-61231203D01*
X120300828Y-61231203D02*
X120300828Y-61016917D01*
X120300828Y-61016917D02*
X120372257Y-60874060D01*
X120372257Y-60874060D02*
X120443685Y-60802632D01*
X120443685Y-60802632D02*
X120586542Y-60731203D01*
X120586542Y-60731203D02*
X121015114Y-60731203D01*
X121015114Y-60731203D02*
X121157971Y-60802632D01*
X121157971Y-60802632D02*
X121229400Y-60874060D01*
X121229400Y-60874060D02*
X121300828Y-61016917D01*
X121300828Y-61016917D02*
X121300828Y-61231203D01*
X121300828Y-60088346D02*
X120300828Y-60088346D01*
X120586542Y-60088346D02*
X120443685Y-60016917D01*
X120443685Y-60016917D02*
X120372257Y-59945489D01*
X120372257Y-59945489D02*
X120300828Y-59802631D01*
X120300828Y-59802631D02*
X120300828Y-59659774D01*
D11*
D12*
X145054510Y-52729400D02*
X146197368Y-52729400D01*
X145625939Y-53300828D02*
X145625939Y-52157971D01*
D10*
X115000000Y-145000000D02*
X122000000Y-152000000D01*
X158999992Y-32499972D02*
G75*
G02*
X161000028Y-34499972I8J-2000028D01*
G01*
X115000000Y-50500000D02*
X115000000Y-37500000D01*
X158500000Y-32500000D02*
X159000000Y-32500000D01*
X160500000Y-146000000D02*
X161000000Y-145500000D01*
X115000000Y-37500000D02*
X115000000Y-35000000D01*
X161000000Y-140000000D02*
X161000000Y-139500000D01*
%TD*%
D15*
%TO.P,BATTERY_INPUT1,2,Pin_2_2*%
%TO.N,GND*%
X151035000Y-39867500D03*
D16*
%TO.P,BATTERY_INPUT1,1,Pin_1_1*%
%TO.N,/SOURCE*%
X145955000Y-39867500D03*
%TD*%
D17*
%TO.P,PCA9685,6,Pin_6_6*%
%TO.N,GND*%
X146580000Y-137825000D03*
%TO.P,PCA9685,5,Pin_5_5*%
%TO.N,/OE*%
X144040000Y-137825000D03*
%TO.P,PCA9685,4,Pin_4_4*%
%TO.N,/SCL*%
X141500000Y-137825000D03*
%TO.P,PCA9685,3,Pin_3_3*%
%TO.N,/SDA*%
X138960000Y-137825000D03*
%TO.P,PCA9685,2,Pin_2_2*%
%TO.N,/3V3*%
X136420000Y-137825000D03*
%TO.P,PCA9685,1,Pin_1_1*%
%TO.N,unconnected-(PCA9685-Pin_1-Pad1)*%
X133880000Y-137825000D03*
%TD*%
D18*
%TO.P,BUCK_CONNECTOR1,2,Pin_2_2*%
%TO.N,GND*%
X150535000Y-69867500D03*
%TO.P,BUCK_CONNECTOR1,1,Pin_1_1*%
%TO.N,/5Vin*%
X145455000Y-69867500D03*
%TD*%
D19*
%TO.P,ESP32_RIGHT1,22,Pin_22_22*%
%TO.N,GND*%
X152400000Y-132635000D03*
%TO.P,ESP32_RIGHT1,21,Pin_21_21*%
%TO.N,unconnected-(ESP32_RIGHT1-Pin_21-Pad21)*%
X152400000Y-130095000D03*
%TO.P,ESP32_RIGHT1,20,Pin_20_20*%
%TO.N,unconnected-(ESP32_RIGHT1-Pin_20-Pad20)*%
X152400000Y-127555000D03*
%TO.P,ESP32_RIGHT1,19,Pin_19_19*%
%TO.N,unconnected-(ESP32_RIGHT1-Pin_19-Pad19)*%
X152400000Y-125015000D03*
%TO.P,ESP32_RIGHT1,18,Pin_18_18*%
%TO.N,unconnected-(ESP32_RIGHT1-Pin_18-Pad18)*%
X152400000Y-122475000D03*
%TO.P,ESP32_RIGHT1,17,Pin_17_17*%
%TO.N,unconnected-(ESP32_RIGHT1-Pin_17-Pad17)*%
X152400000Y-119935000D03*
%TO.P,ESP32_RIGHT1,16,Pin_16_16*%
%TO.N,unconnected-(ESP32_RIGHT1-Pin_16-Pad16)*%
X152400000Y-117395000D03*
%TO.P,ESP32_RIGHT1,15,Pin_15_15*%
%TO.N,unconnected-(ESP32_RIGHT1-Pin_15-Pad15)*%
X152400000Y-114855000D03*
%TO.P,ESP32_RIGHT1,14,Pin_14_14*%
%TO.N,unconnected-(ESP32_RIGHT1-Pin_14-Pad14)*%
X152400000Y-112315000D03*
%TO.P,ESP32_RIGHT1,13,Pin_13_13*%
%TO.N,unconnected-(ESP32_RIGHT1-Pin_13-Pad13)*%
X152400000Y-109775000D03*
%TO.P,ESP32_RIGHT1,12,Pin_12_12*%
%TO.N,unconnected-(ESP32_RIGHT1-Pin_12-Pad12)*%
X152400000Y-107235000D03*
%TO.P,ESP32_RIGHT1,11,Pin_11_11*%
%TO.N,unconnected-(ESP32_RIGHT1-Pin_11-Pad11)*%
X152400000Y-104695000D03*
%TO.P,ESP32_RIGHT1,10,Pin_10_10*%
%TO.N,unconnected-(ESP32_RIGHT1-Pin_10-Pad10)*%
X152400000Y-102155000D03*
%TO.P,ESP32_RIGHT1,9,Pin_9_9*%
%TO.N,unconnected-(ESP32_RIGHT1-Pin_9-Pad9)*%
X152400000Y-99615000D03*
%TO.P,ESP32_RIGHT1,8,Pin_8_8*%
%TO.N,unconnected-(ESP32_RIGHT1-Pin_8-Pad8)*%
X152400000Y-97075000D03*
%TO.P,ESP32_RIGHT1,7,Pin_7_7*%
%TO.N,unconnected-(ESP32_RIGHT1-Pin_7-Pad7)*%
X152400000Y-94535000D03*
%TO.P,ESP32_RIGHT1,6,Pin_6_6*%
%TO.N,unconnected-(ESP32_RIGHT1-Pin_6-Pad6)*%
X152400000Y-91995000D03*
%TO.P,ESP32_RIGHT1,5,Pin_5_5*%
%TO.N,unconnected-(ESP32_RIGHT1-Pin_5-Pad5)*%
X152400000Y-89455000D03*
%TO.P,ESP32_RIGHT1,4,Pin_4_4*%
%TO.N,unconnected-(ESP32_RIGHT1-Pin_4-Pad4)*%
X152400000Y-86915000D03*
%TO.P,ESP32_RIGHT1,3,Pin_3_3*%
%TO.N,unconnected-(ESP32_RIGHT1-Pin_3-Pad3)*%
X152400000Y-84375000D03*
%TO.P,ESP32_RIGHT1,2,Pin_2_2*%
%TO.N,unconnected-(ESP32_RIGHT1-Pin_2-Pad2)*%
X152400000Y-81835000D03*
%TO.P,ESP32_RIGHT1,1,Pin_1_1*%
%TO.N,GND*%
X152400000Y-79295000D03*
%TD*%
%TO.P,ESP32_LEFT1,22,Pin_22_22*%
%TO.N,GND*%
X127000000Y-132635000D03*
%TO.P,ESP32_LEFT1,21,Pin_21_21*%
%TO.N,/5Vin*%
X127000000Y-130095000D03*
%TO.P,ESP32_LEFT1,20,Pin_20_20*%
%TO.N,unconnected-(ESP32_LEFT1-Pin_20-Pad20)*%
X127000000Y-127555000D03*
%TO.P,ESP32_LEFT1,19,Pin_19_19*%
%TO.N,unconnected-(ESP32_LEFT1-Pin_19-Pad19)*%
X127000000Y-125015000D03*
%TO.P,ESP32_LEFT1,18,Pin_18_18*%
%TO.N,unconnected-(ESP32_LEFT1-Pin_18-Pad18)*%
X127000000Y-122475000D03*
%TO.P,ESP32_LEFT1,17,Pin_17_17*%
%TO.N,unconnected-(ESP32_LEFT1-Pin_17-Pad17)*%
X127000000Y-119935000D03*
%TO.P,ESP32_LEFT1,16,Pin_16_16*%
%TO.N,unconnected-(ESP32_LEFT1-Pin_16-Pad16)*%
X127000000Y-117395000D03*
%TO.P,ESP32_LEFT1,15,Pin_15_15*%
%TO.N,/SCL*%
X127000000Y-114855000D03*
%TO.P,ESP32_LEFT1,14,Pin_14_14*%
%TO.N,unconnected-(ESP32_LEFT1-Pin_14-Pad14)*%
X127000000Y-112315000D03*
%TO.P,ESP32_LEFT1,13,Pin_13_13*%
%TO.N,unconnected-(ESP32_LEFT1-Pin_13-Pad13)*%
X127000000Y-109775000D03*
%TO.P,ESP32_LEFT1,12,Pin_12_12*%
%TO.N,/SDA*%
X127000000Y-107235000D03*
%TO.P,ESP32_LEFT1,11,Pin_11_11*%
%TO.N,unconnected-(ESP32_LEFT1-Pin_11-Pad11)*%
X127000000Y-104695000D03*
%TO.P,ESP32_LEFT1,10,Pin_10_10*%
%TO.N,unconnected-(ESP32_LEFT1-Pin_10-Pad10)*%
X127000000Y-102155000D03*
%TO.P,ESP32_LEFT1,9,Pin_9_9*%
%TO.N,unconnected-(ESP32_LEFT1-Pin_9-Pad9)*%
X127000000Y-99615000D03*
%TO.P,ESP32_LEFT1,8,Pin_8_8*%
%TO.N,unconnected-(ESP32_LEFT1-Pin_8-Pad8)*%
X127000000Y-97075000D03*
%TO.P,ESP32_LEFT1,7,Pin_7_7*%
%TO.N,unconnected-(ESP32_LEFT1-Pin_7-Pad7)*%
X127000000Y-94535000D03*
%TO.P,ESP32_LEFT1,6,Pin_6_6*%
%TO.N,unconnected-(ESP32_LEFT1-Pin_6-Pad6)*%
X127000000Y-91995000D03*
%TO.P,ESP32_LEFT1,5,Pin_5_5*%
%TO.N,unconnected-(ESP32_LEFT1-Pin_5-Pad5)*%
X127000000Y-89455000D03*
%TO.P,ESP32_LEFT1,4,Pin_4_4*%
%TO.N,/SIG*%
X127000000Y-86915000D03*
%TO.P,ESP32_LEFT1,3,Pin_3_3*%
%TO.N,unconnected-(ESP32_LEFT1-Pin_3-Pad3)*%
X127000000Y-84375000D03*
%TO.P,ESP32_LEFT1,2,Pin_2_2*%
%TO.N,unconnected-(ESP32_LEFT1-Pin_2-Pad2)*%
X127000000Y-81835000D03*
%TO.P,ESP32_LEFT1,1,Pin_1_1*%
%TO.N,/3V3*%
X127000000Y-79295000D03*
%TD*%
D20*
%TO.P,R1,2*%
%TO.N,/3V3*%
X141690000Y-145825000D03*
%TO.P,R1,1*%
%TO.N,/SCL*%
X149310000Y-145825000D03*
%TD*%
%TO.P,R2,2*%
%TO.N,/3V3*%
X125690000Y-146325000D03*
%TO.P,R2,1*%
%TO.N,/SDA*%
X133310000Y-146325000D03*
%TD*%
D21*
%TO.P,Q1,3,S_3*%
%TO.N,/SOURCE*%
X125460000Y-47050000D03*
%TO.P,Q1,2,D_2*%
%TO.N,/5Vin*%
X128000000Y-47050000D03*
D22*
%TO.P,Q1,1,G_1*%
%TO.N,GND*%
X130540000Y-47050000D03*
%TD*%
D18*
%TO.P,PCA9685_TB1,2,Pin_2_2*%
%TO.N,GND*%
X150535000Y-55400000D03*
%TO.P,PCA9685_TB1,1,Pin_1_1*%
%TO.N,/5Vin*%
X145455000Y-55400000D03*
%TD*%
D19*
%TO.P,EMG_SENSOR1,6,Pin_6_6*%
%TO.N,/+VS*%
X127000000Y-72850000D03*
%TO.P,EMG_SENSOR1,5,Pin_5_5*%
%TO.N,GND*%
X127000000Y-70310000D03*
%TO.P,EMG_SENSOR1,4,Pin_4_4*%
%TO.N,/-VS*%
X127000000Y-67770000D03*
%TO.P,EMG_SENSOR1,3,Pin_3_3*%
%TO.N,/EMPTY_SPACE*%
X127000000Y-65230000D03*
%TO.P,EMG_SENSOR1,2,Pin_2_2*%
%TO.N,/SIG*%
X127000000Y-62690000D03*
%TO.P,EMG_SENSOR1,1,Pin_1_1*%
%TO.N,GND*%
X127000000Y-60150000D03*
%TD*%
D23*
%TO.P,C1,2*%
%TO.N,GND*%
X137500000Y-43500000D03*
%TO.P,C1,1*%
%TO.N,/5Vin*%
X137500000Y-48500000D03*
%TD*%
%TO.N,GND*%
D24*
X159500000Y-53000000D02*
X159500000Y-72195000D01*
D25*
X152400000Y-79295000D02*
X158000000Y-84895000D01*
X123500000Y-71500000D02*
X124690000Y-70310000D01*
%TO.N,/SCL*%
D26*
X141500000Y-134000000D02*
X141500000Y-134190000D01*
%TO.N,GND*%
D24*
X150000000Y-43500000D02*
X151035000Y-44535000D01*
%TO.N,/SDA*%
D26*
X138960000Y-136960000D02*
X138960000Y-137825000D01*
%TO.N,/3V3*%
D27*
X119500000Y-85500000D02*
X125705000Y-79295000D01*
X123000000Y-142825000D02*
X134000000Y-142825000D01*
%TO.N,GND*%
D24*
X159500000Y-72195000D02*
X152400000Y-79295000D01*
%TO.N,/SCL*%
D26*
X128500000Y-135500000D02*
X131500000Y-132500000D01*
%TO.N,GND*%
D25*
X124690000Y-70310000D02*
X127000000Y-70310000D01*
X123500000Y-61500000D02*
X124850000Y-60150000D01*
%TO.N,/SIG*%
D26*
X129500000Y-63500000D02*
X129500000Y-85500000D01*
%TO.N,GND*%
D25*
X124850000Y-60150000D02*
X127000000Y-60150000D01*
%TO.N,/SCL*%
D26*
X125500000Y-135500000D02*
X128500000Y-135500000D01*
%TO.N,/SDA*%
X126806548Y-107235000D02*
X122000000Y-112041548D01*
%TO.N,GND*%
D24*
X150915000Y-134085000D02*
X147175000Y-137825000D01*
%TO.N,/SCL*%
D26*
X141500000Y-134000000D02*
X141500000Y-137825000D01*
%TO.N,GND*%
D24*
X147175000Y-137825000D02*
X146580000Y-137825000D01*
%TO.N,/5Vin*%
X145455000Y-69955000D02*
X145455000Y-69867500D01*
X130500000Y-120000000D02*
X132000000Y-118500000D01*
X132000000Y-60945000D02*
X137545000Y-55400000D01*
%TO.N,GND*%
D25*
X157765000Y-138000000D02*
X152400000Y-132635000D01*
%TO.N,/5Vin*%
D24*
X151000000Y-52000000D02*
X151025600Y-51974400D01*
%TO.N,GND*%
X138500000Y-59500000D02*
X149500000Y-59500000D01*
X154000000Y-56500000D02*
X154000000Y-65580000D01*
X142000000Y-64000000D02*
X146000000Y-64000000D01*
%TO.N,/SOURCE*%
X125460000Y-47050000D02*
X125460000Y-43342500D01*
%TO.N,GND*%
X146000000Y-64000000D02*
X150535000Y-68535000D01*
%TO.N,/SIG*%
D26*
X128690000Y-62690000D02*
X129500000Y-63500000D01*
%TO.N,GND*%
D25*
X123500000Y-73000000D02*
X123500000Y-71500000D01*
%TO.N,/3V3*%
D27*
X123000000Y-142825000D02*
X119500000Y-139325000D01*
%TO.N,GND*%
D24*
X135000000Y-63000000D02*
X138500000Y-59500000D01*
%TO.N,/3V3*%
D27*
X123000000Y-143635000D02*
X125690000Y-146325000D01*
%TO.N,GND*%
D24*
X137500000Y-43500000D02*
X150000000Y-43500000D01*
%TO.N,/SDA*%
D28*
X138960000Y-137825000D02*
X138960000Y-140675000D01*
%TO.N,/5Vin*%
D24*
X127702500Y-130095000D02*
X130500000Y-127297500D01*
X149151700Y-52000000D02*
X151000000Y-52000000D01*
%TO.N,GND*%
D25*
X152500000Y-150000000D02*
X124500000Y-150000000D01*
%TO.N,/5Vin*%
D24*
X137545000Y-55400000D02*
X145455000Y-55400000D01*
%TO.N,/SDA*%
D26*
X136500000Y-134500000D02*
X138960000Y-136960000D01*
%TO.N,GND*%
D24*
X127135000Y-132500000D02*
X128500000Y-132500000D01*
%TO.N,/SDA*%
D26*
X124500000Y-137000000D02*
X129000000Y-137000000D01*
%TO.N,/SIG*%
X128085000Y-86915000D02*
X127000000Y-86915000D01*
%TO.N,GND*%
D27*
X150535000Y-69045000D02*
X150535000Y-69867500D01*
%TO.N,/3V3*%
X123000000Y-142825000D02*
X123000000Y-143635000D01*
X136420000Y-140405000D02*
X136420000Y-138825000D01*
X125000000Y-142825000D02*
X126825000Y-142825000D01*
%TO.N,/5Vin*%
D24*
X137500000Y-48500000D02*
X131775000Y-54225000D01*
%TO.N,/SDA*%
D26*
X122000000Y-134500000D02*
X124500000Y-137000000D01*
%TO.N,GND*%
D25*
X124500000Y-150000000D02*
X117000000Y-142500000D01*
%TO.N,/SDA*%
D28*
X127000000Y-107235000D02*
X126806548Y-107235000D01*
%TO.N,GND*%
D25*
X158000000Y-144500000D02*
X152500000Y-150000000D01*
%TO.N,/5Vin*%
D24*
X131775000Y-54225000D02*
X132950000Y-55400000D01*
%TO.N,GND*%
X138500000Y-67500000D02*
X142000000Y-64000000D01*
D25*
X117000000Y-84000000D02*
X123500000Y-77500000D01*
%TO.N,/5Vin*%
D24*
X132950000Y-55400000D02*
X137545000Y-55400000D01*
%TO.N,GND*%
X152900000Y-55400000D02*
X154000000Y-56500000D01*
X134090000Y-43500000D02*
X130540000Y-47050000D01*
%TO.N,/3V3*%
D27*
X132000000Y-148000000D02*
X139515000Y-148000000D01*
%TO.N,/SCL*%
D26*
X141500000Y-138015000D02*
X149310000Y-145825000D01*
%TO.N,/SDA*%
X122000000Y-112235000D02*
X122000000Y-134500000D01*
%TO.N,GND*%
D24*
X138500000Y-72000000D02*
X138500000Y-67500000D01*
X154000000Y-65580000D02*
X150535000Y-69045000D01*
X150950000Y-134085000D02*
X150915000Y-134085000D01*
%TO.N,/3V3*%
D27*
X119500000Y-139325000D02*
X119500000Y-85500000D01*
%TO.N,/SCL*%
D26*
X140000000Y-132500000D02*
X141500000Y-134000000D01*
X124000000Y-117855000D02*
X124000000Y-134000000D01*
%TO.N,GND*%
D25*
X123500000Y-77500000D02*
X123500000Y-73000000D01*
X123500000Y-73000000D02*
X123500000Y-61500000D01*
%TO.N,/5Vin*%
D24*
X153500000Y-73500000D02*
X149000000Y-73500000D01*
X157000000Y-70000000D02*
X153500000Y-73500000D01*
%TO.N,GND*%
D25*
X158000000Y-139000000D02*
X158000000Y-144500000D01*
%TO.N,/3V3*%
D27*
X139515000Y-148000000D02*
X141690000Y-145825000D01*
%TO.N,GND*%
D24*
X152400000Y-79295000D02*
X145795000Y-79295000D01*
X150535000Y-68535000D02*
X150535000Y-69045000D01*
%TO.N,/3V3*%
D29*
X136420000Y-138825000D02*
X136420000Y-137825000D01*
%TO.N,GND*%
D25*
X158000000Y-138000000D02*
X158000000Y-139000000D01*
%TO.N,/3V3*%
D27*
X134000000Y-142825000D02*
X136420000Y-140405000D01*
%TO.N,/SDA*%
D28*
X122000000Y-112041548D02*
X122000000Y-112235000D01*
%TO.N,/SCL*%
D26*
X127000000Y-114855000D02*
X124000000Y-117855000D01*
%TO.N,/5Vin*%
D24*
X132000000Y-118500000D02*
X132000000Y-60945000D01*
%TO.N,/3V3*%
D27*
X126825000Y-142825000D02*
X132000000Y-148000000D01*
%TO.N,/5Vin*%
D24*
X128000000Y-50450000D02*
X131775000Y-54225000D01*
X149000000Y-73500000D02*
X145455000Y-69955000D01*
%TO.N,/SOURCE*%
X125460000Y-43342500D02*
X128935000Y-39867500D01*
%TO.N,/5Vin*%
X145455000Y-55400000D02*
X146449172Y-54405828D01*
%TO.N,/SCL*%
D26*
X131500000Y-132500000D02*
X140000000Y-132500000D01*
%TO.N,/SDA*%
X131500000Y-134500000D02*
X136500000Y-134500000D01*
D28*
X138960000Y-140675000D02*
X133310000Y-146325000D01*
%TO.N,GND*%
D24*
X150535000Y-55400000D02*
X152900000Y-55400000D01*
X149500000Y-59500000D02*
X150535000Y-58465000D01*
X150535000Y-58465000D02*
X150535000Y-55400000D01*
%TO.N,/5Vin*%
D29*
X127000000Y-130095000D02*
X127702500Y-130095000D01*
%TO.N,/SDA*%
D26*
X129000000Y-137000000D02*
X131500000Y-134500000D01*
%TO.N,GND*%
D25*
X158000000Y-84895000D02*
X158000000Y-138000000D01*
%TO.N,/SIG*%
D26*
X129500000Y-85500000D02*
X128085000Y-86915000D01*
%TO.N,/3V3*%
D29*
X127000000Y-79295000D02*
X125705000Y-79295000D01*
%TO.N,GND*%
D24*
X151035000Y-39867500D02*
X151035000Y-44535000D01*
%TO.N,/5Vin*%
X146745872Y-54405828D02*
X149151700Y-52000000D01*
%TO.N,GND*%
X152400000Y-132635000D02*
X150950000Y-134085000D01*
X128500000Y-132500000D02*
X135000000Y-126000000D01*
D25*
X117000000Y-142500000D02*
X117000000Y-84000000D01*
D24*
X145795000Y-79295000D02*
X138500000Y-72000000D01*
%TO.N,/5Vin*%
X128000000Y-47050000D02*
X128000000Y-50250000D01*
X153974400Y-51974400D02*
X157000000Y-55000000D01*
%TO.N,GND*%
D25*
X158000000Y-138000000D02*
X157765000Y-138000000D01*
D24*
X151035000Y-44535000D02*
X159500000Y-53000000D01*
%TO.N,/SCL*%
D26*
X124000000Y-134000000D02*
X125500000Y-135500000D01*
%TO.N,/5Vin*%
D24*
X130500000Y-127297500D02*
X130500000Y-120000000D01*
%TO.N,/SOURCE*%
X128935000Y-39867500D02*
X145955000Y-39867500D01*
%TO.N,GND*%
D27*
X127000000Y-132635000D02*
X127135000Y-132500000D01*
D24*
X135000000Y-126000000D02*
X135000000Y-63000000D01*
%TO.N,/5Vin*%
X151025600Y-51974400D02*
X153974400Y-51974400D01*
%TO.N,GND*%
X137500000Y-43500000D02*
X134090000Y-43500000D01*
%TO.N,/SIG*%
D26*
X127000000Y-62690000D02*
X128690000Y-62690000D01*
%TO.N,/5Vin*%
D24*
X146449172Y-54405828D02*
X146745872Y-54405828D01*
X157000000Y-55000000D02*
X157000000Y-70000000D01*
%TD*%
M02*
